# WaveFront *.obj file (generated by Autodesk ATF)

mtllib 7ff68b01-dbad-4f9a-aaa4-bf017fff37ed.mtl

g Body2

v 25.000000 2.000000 -34.500000
v 25.000000 2.000000 -12.500000
v 15.000000 2.000000 -12.500000
v 15.000000 2.000000 -17.500000
v 7.500000 2.000000 -17.500000
v 7.500000 2.000000 10.000000
v 15.000000 2.000000 10.000000
v 15.000000 2.000000 25.000000
v -15.000000 2.000000 25.000000
v -15.000000 2.000000 10.000000
v -7.500000 2.000000 10.000000
v -7.500000 2.000000 -17.500000
v -15.000000 2.000000 -17.500000
v -15.000000 2.000000 -12.500000
v -25.000000 2.000000 -12.500000
v -25.000000 2.000000 -34.500000
v 28.000000 2.000000 -37.500000
v -28.000000 2.000000 -37.500000
v -28.000000 2.000000 31.000000
v 28.000000 2.000000 31.000000
v -15.000000 5.000000 25.000000
v -15.000000 5.000000 10.000000
v 15.000000 5.000000 25.000000
v 15.000000 5.000000 10.000000
v 7.500000 5.000000 10.000000
v 7.500000 5.000000 -17.500000
v 15.000000 5.000000 -17.500000
v 15.000000 5.000000 -12.500000
v 25.000000 5.000000 -12.500000
v -7.500000 5.000000 10.000000
v -7.500000 5.000000 -17.500000
v -15.000000 5.000000 -17.500000
v -15.000000 5.000000 -12.500000
v -25.000000 5.000000 -12.500000
v -25.000000 5.000000 -34.500000
v 25.000000 5.000000 -34.500000
v 31.000000 0.000000 -40.500000
v 31.000000 5.000000 -40.500000
v 31.000000 5.000000 34.000000
v 31.000000 0.000000 34.000000
v -31.000000 0.000000 -40.500000
v -31.000000 5.000000 -40.500000
v -28.000000 5.000000 31.000000
v 28.000000 5.000000 31.000000
v -28.000000 5.000000 -37.500000
v 28.000000 5.000000 -37.500000
v -31.000000 5.000000 34.000000
v -31.000000 0.000000 34.000000
vt -0.925000 2.500000 0.000000
vt -3.425000 2.800000 0.000000
vt -3.125000 2.500000 0.000000
vt -3.425000 -2.800000 0.000000
vt -3.125000 -2.500000 0.000000
vt -0.925000 -2.500000 0.000000
vt 3.425000 -2.800000 0.000000
vt 1.325000 -1.500000 0.000000
vt 2.825000 -1.500000 0.000000
vt 2.825000 1.500000 0.000000
vt 3.425000 2.800000 0.000000
vt 1.325000 1.500000 0.000000
vt -0.925000 1.500000 0.000000
vt -1.425000 1.500000 0.000000
vt -1.425000 0.750000 0.000000
vt 1.325000 0.750000 0.000000
vt -0.925000 -1.500000 0.000000
vt 1.325000 -0.750000 0.000000
vt -1.425000 -0.750000 0.000000
vt -1.425000 -1.500000 0.000000
vt 0.000000 0.200000 0.000000
vt 1.500000 0.200000 0.000000
vt 0.000000 0.500000 0.000000
vt 1.500000 0.500000 0.000000
vt 0.000000 0.200000 0.000000
vt 3.000000 0.200000 0.000000
vt 0.000000 0.500000 0.000000
vt 3.000000 0.500000 0.000000
vt 0.000000 0.200000 0.000000
vt 1.500000 0.200000 0.000000
vt 0.000000 0.500000 0.000000
vt 1.500000 0.500000 0.000000
vt 0.000000 0.200000 0.000000
vt 0.750000 0.200000 0.000000
vt 0.000000 0.500000 0.000000
vt 0.750000 0.500000 0.000000
vt -0.000000 0.200000 0.000000
vt 2.750000 0.200000 0.000000
vt -0.000000 0.500000 0.000000
vt 2.750000 0.500000 0.000000
vt 0.000000 0.200000 0.000000
vt 0.750000 0.200000 0.000000
vt 0.000000 0.500000 0.000000
vt 0.750000 0.500000 0.000000
vt 0.000000 0.200000 0.000000
vt 0.500000 0.200000 0.000000
vt 0.000000 0.500000 0.000000
vt 0.500000 0.500000 0.000000
vt 0.000000 0.200000 0.000000
vt 1.000000 0.200000 0.000000
vt 0.000000 0.500000 0.000000
vt 1.000000 0.500000 0.000000
vt -0.000000 0.200000 0.000000
vt 0.750000 0.200000 0.000000
vt -0.000000 0.500000 0.000000
vt 0.750000 0.500000 0.000000
vt 0.000000 0.200000 0.000000
vt 2.750000 0.200000 0.000000
vt 0.000000 0.500000 0.000000
vt 2.750000 0.500000 0.000000
vt 0.000000 0.200000 0.000000
vt 0.750000 0.200000 0.000000
vt -0.000000 0.500000 0.000000
vt 0.750000 0.500000 0.000000
vt -0.000000 0.200000 0.000000
vt 0.500000 0.200000 0.000000
vt -0.000000 0.500000 0.000000
vt 0.500000 0.500000 0.000000
vt -0.000000 0.200000 0.000000
vt 1.000000 0.200000 0.000000
vt 0.000000 0.500000 0.000000
vt 1.000000 0.500000 0.000000
vt 0.000000 0.200000 0.000000
vt 2.200000 0.200000 0.000000
vt 0.000000 0.500000 0.000000
vt 2.200000 0.500000 0.000000
vt 0.000000 0.200000 0.000000
vt 5.000000 0.200000 0.000000
vt 0.000000 0.500000 0.000000
vt 5.000000 0.500000 0.000000
vt 0.000000 0.200000 0.000000
vt 2.200000 0.200000 0.000000
vt 0.000000 0.500000 0.000000
vt 2.200000 0.500000 0.000000
vt -0.775000 1.500000 0.000000
vt -0.775000 2.500000 0.000000
vt -1.275000 1.500000 0.000000
vt -2.975000 2.500000 0.000000
vt -1.275000 0.750000 0.000000
vt -2.975000 -2.500000 0.000000
vt -1.275000 -0.750000 0.000000
vt -1.275000 -1.500000 0.000000
vt -0.775000 -2.500000 0.000000
vt -0.775000 -1.500000 0.000000
vt 1.475000 -0.750000 0.000000
vt 1.475000 0.750000 0.000000
vt 2.975000 -1.500000 0.000000
vt 2.975000 1.500000 0.000000
vt 1.475000 -1.500000 0.000000
vt 1.475000 1.500000 0.000000
vt 7.450000 0.500000 0.000000
vt 0.000000 0.500000 0.000000
vt 7.450000 0.000000 0.000000
vt 0.000000 0.000000 0.000000
vt 6.200000 0.500000 0.000000
vt -0.000000 0.500000 0.000000
vt 6.200000 0.000000 0.000000
vt -0.000000 0.000000 0.000000
vt 0.000000 0.200000 0.000000
vt 5.600000 0.200000 0.000000
vt 0.000000 0.500000 0.000000
vt 5.600000 0.500000 0.000000
vt -0.000000 0.200000 0.000000
vt 6.850000 0.200000 0.000000
vt -0.000000 0.500000 0.000000
vt 6.850000 0.500000 0.000000
vt 0.000000 0.200000 0.000000
vt 5.600000 0.200000 0.000000
vt 0.000000 0.500000 0.000000
vt 5.600000 0.500000 0.000000
vt 0.000000 0.200000 0.000000
vt 6.850000 0.200000 0.000000
vt 0.000000 0.500000 0.000000
vt 6.850000 0.500000 0.000000
vt 6.200000 0.500000 0.000000
vt 0.000000 0.500000 0.000000
vt 6.200000 0.000000 0.000000
vt 0.000000 0.000000 0.000000
vt 7.450000 0.500000 0.000000
vt 0.000000 0.500000 0.000000
vt 7.450000 0.000000 0.000000
vt 0.000000 0.000000 0.000000
vt -3.100000 -3.725000 0.000000
vt 3.100000 -3.725000 0.000000
vt -3.100000 3.725000 0.000000
vt 3.100000 3.725000 0.000000
vt 3.425000 2.800000 0.000000
vt -3.725000 3.100000 0.000000
vt -3.425000 2.800000 0.000000
vt -3.725000 -3.100000 0.000000
vt -3.425000 -2.800000 0.000000
vt 3.725000 -3.100000 0.000000
vt 3.425000 -2.800000 0.000000
vt 3.725000 3.100000 0.000000
vn 0.000000 0.100000 0.000000
vn 0.000000 0.100000 0.000000
vn 0.000000 0.100000 0.000000
vn 0.000000 0.100000 0.000000
vn 0.000000 0.100000 0.000000
vn 0.000000 0.100000 0.000000
vn 0.000000 0.100000 0.000000
vn 0.000000 0.100000 0.000000
vn 0.000000 0.100000 0.000000
vn 0.000000 0.100000 0.000000
vn 0.000000 0.100000 0.000000
vn 0.000000 0.100000 0.000000
vn 0.000000 0.100000 0.000000
vn 0.000000 0.100000 0.000000
vn 0.000000 0.100000 0.000000
vn 0.000000 0.100000 0.000000
vn 0.000000 0.100000 0.000000
vn 0.000000 0.100000 0.000000
vn 0.000000 0.100000 0.000000
vn 0.000000 0.100000 0.000000
vn -0.100000 0.000000 0.000000
vn -0.100000 0.000000 0.000000
vn -0.100000 0.000000 0.000000
vn -0.100000 0.000000 0.000000
vn 0.000000 -0.000000 0.100000
vn 0.000000 -0.000000 0.100000
vn 0.000000 -0.000000 0.100000
vn 0.000000 -0.000000 0.100000
vn 0.100000 -0.000000 0.000000
vn 0.100000 -0.000000 0.000000
vn 0.100000 -0.000000 0.000000
vn 0.100000 -0.000000 0.000000
vn 0.000000 0.000000 -0.100000
vn 0.000000 0.000000 -0.100000
vn 0.000000 0.000000 -0.100000
vn 0.000000 0.000000 -0.100000
vn 0.100000 0.000000 -0.000000
vn 0.100000 0.000000 -0.000000
vn 0.100000 0.000000 -0.000000
vn 0.100000 0.000000 -0.000000
vn 0.000000 -0.000000 0.100000
vn 0.000000 -0.000000 0.100000
vn 0.000000 -0.000000 0.100000
vn 0.000000 -0.000000 0.100000
vn -0.100000 0.000000 0.000000
vn -0.100000 0.000000 0.000000
vn -0.100000 0.000000 0.000000
vn -0.100000 0.000000 0.000000
vn 0.000000 0.000000 0.100000
vn 0.000000 0.000000 0.100000
vn 0.000000 0.000000 0.100000
vn 0.000000 0.000000 0.100000
vn 0.000000 0.000000 -0.100000
vn 0.000000 0.000000 -0.100000
vn 0.000000 0.000000 -0.100000
vn 0.000000 0.000000 -0.100000
vn -0.100000 0.000000 0.000000
vn -0.100000 0.000000 0.000000
vn -0.100000 0.000000 0.000000
vn -0.100000 0.000000 0.000000
vn 0.000000 -0.000000 0.100000
vn 0.000000 -0.000000 0.100000
vn 0.000000 -0.000000 0.100000
vn 0.000000 -0.000000 0.100000
vn 0.100000 0.000000 0.000000
vn 0.100000 0.000000 0.000000
vn 0.100000 0.000000 0.000000
vn 0.100000 0.000000 0.000000
vn 0.000000 -0.000000 0.100000
vn 0.000000 -0.000000 0.100000
vn 0.000000 -0.000000 0.100000
vn 0.000000 -0.000000 0.100000
vn -0.100000 0.000000 0.000000
vn -0.100000 0.000000 0.000000
vn -0.100000 0.000000 0.000000
vn -0.100000 0.000000 0.000000
vn 0.000000 0.000000 -0.100000
vn 0.000000 0.000000 -0.100000
vn 0.000000 0.000000 -0.100000
vn 0.000000 0.000000 -0.100000
vn 0.100000 -0.000000 0.000000
vn 0.100000 -0.000000 0.000000
vn 0.100000 -0.000000 0.000000
vn 0.100000 -0.000000 0.000000
vn 0.000000 0.100000 0.000000
vn 0.000000 0.100000 0.000000
vn 0.000000 0.100000 0.000000
vn 0.000000 0.100000 0.000000
vn 0.000000 0.100000 0.000000
vn 0.000000 0.100000 0.000000
vn 0.000000 0.100000 0.000000
vn 0.000000 0.100000 0.000000
vn 0.000000 0.100000 0.000000
vn 0.000000 0.100000 0.000000
vn 0.000000 0.100000 0.000000
vn 0.000000 0.100000 0.000000
vn 0.000000 0.100000 0.000000
vn 0.000000 0.100000 0.000000
vn 0.000000 0.100000 0.000000
vn 0.000000 0.100000 0.000000
vn 0.100000 -0.000000 0.000000
vn 0.100000 -0.000000 0.000000
vn 0.100000 -0.000000 0.000000
vn 0.100000 -0.000000 0.000000
vn 0.000000 0.000000 -0.100000
vn 0.000000 0.000000 -0.100000
vn 0.000000 0.000000 -0.100000
vn 0.000000 0.000000 -0.100000
vn 0.000000 0.000000 -0.100000
vn 0.000000 0.000000 -0.100000
vn 0.000000 0.000000 -0.100000
vn 0.000000 0.000000 -0.100000
vn 0.100000 0.000000 0.000000
vn 0.100000 0.000000 0.000000
vn 0.100000 0.000000 0.000000
vn 0.100000 0.000000 0.000000
vn 0.000000 -0.000000 0.100000
vn 0.000000 -0.000000 0.100000
vn 0.000000 -0.000000 0.100000
vn 0.000000 -0.000000 0.100000
vn -0.100000 0.000000 0.000000
vn -0.100000 0.000000 0.000000
vn -0.100000 0.000000 0.000000
vn -0.100000 0.000000 0.000000
vn 0.000000 0.000000 0.100000
vn 0.000000 0.000000 0.100000
vn 0.000000 0.000000 0.100000
vn 0.000000 0.000000 0.100000
vn -0.100000 0.000000 0.000000
vn -0.100000 0.000000 0.000000
vn -0.100000 0.000000 0.000000
vn -0.100000 0.000000 0.000000
vn 0.000000 -0.100000 0.000000
vn 0.000000 -0.100000 0.000000
vn 0.000000 -0.100000 0.000000
vn 0.000000 -0.100000 0.000000
vn 0.000000 0.100000 0.000000
vn 0.000000 0.100000 0.000000
vn 0.000000 0.100000 0.000000
vn 0.000000 0.100000 0.000000
vn 0.000000 0.100000 0.000000
vn 0.000000 0.100000 0.000000
vn 0.000000 0.100000 0.000000
vn 0.000000 0.100000 0.000000
usemtl Steel_-_Satin
f 2/1/1 17/2/2 1/3/3
f 1/3/3 17/2/2 18/4/4
f 1/3/3 18/4/4 16/5/5
f 16/5/5 18/4/4 15/6/6
f 15/6/6 18/4/4 19/7/7
f 15/6/6 19/7/7 10/8/8
f 10/8/8 19/7/7 9/9/9
f 9/9/9 19/7/7 8/10/10
f 8/10/10 19/7/7 20/11/11
f 8/10/10 20/11/11 7/12/12
f 7/12/12 20/11/11 2/1/1
f 7/12/12 2/1/1 3/13/13
f 4/14/14 5/15/15 3/13/13
f 3/13/13 5/15/15 6/16/16
f 3/13/13 6/16/16 7/12/12
f 15/6/6 10/8/8 14/17/17
f 14/17/17 10/8/8 11/18/18
f 14/17/17 11/18/18 12/19/19
f 12/19/19 13/20/20 14/17/17
f 20/11/11 17/2/2 2/1/1
f 10/21/21 9/22/22 22/23/23
f 22/23/23 9/22/22 21/24/24
f 9/25/25 8/26/26 21/27/27
f 21/27/27 8/26/26 23/28/28
f 8/29/29 7/30/30 23/31/31
f 23/31/31 7/30/30 24/32/32
f 7/33/33 6/34/34 24/35/35
f 24/35/35 6/34/34 25/36/36
f 6/37/37 5/38/38 25/39/39
f 25/39/39 5/38/38 26/40/40
f 5/41/41 4/42/42 26/43/43
f 26/43/43 4/42/42 27/44/44
f 4/45/45 3/46/46 27/47/47
f 27/47/47 3/46/46 28/48/48
f 3/49/49 2/50/50 28/51/51
f 28/51/51 2/50/50 29/52/52
f 11/53/53 10/54/54 30/55/55
f 30/55/55 10/54/54 22/56/56
f 12/57/57 11/58/58 31/59/59
f 31/59/59 11/58/58 30/60/60
f 13/61/61 12/62/62 32/63/63
f 32/63/63 12/62/62 31/64/64
f 14/65/65 13/66/66 33/67/67
f 33/67/67 13/66/66 32/68/68
f 15/69/69 14/70/70 34/71/71
f 34/71/71 14/70/70 33/72/72
f 16/73/73 15/74/74 35/75/75
f 35/75/75 15/74/74 34/76/76
f 1/77/77 16/78/78 36/79/79
f 36/79/79 16/78/78 35/80/80
f 2/81/81 1/82/82 29/83/83
f 29/83/83 1/82/82 36/84/84
f 28/85/85 29/86/86 27/87/87
f 27/87/87 29/86/86 36/88/88
f 27/87/87 36/88/88 26/89/89
f 26/89/89 36/88/88 35/90/90
f 26/89/89 35/90/90 31/91/91
f 31/91/91 35/90/90 32/92/92
f 32/92/92 35/90/90 34/93/93
f 32/92/92 34/93/93 33/94/94
f 31/91/91 30/95/95 26/89/89
f 26/89/89 30/95/95 25/96/96
f 25/96/96 30/95/95 21/97/97
f 25/96/96 21/97/97 23/98/98
f 30/95/95 22/99/99 21/97/97
f 23/98/98 24/100/100 25/96/96
f 38/101/101 39/102/102 37/103/103
f 37/103/103 39/102/102 40/104/104
f 42/105/105 38/106/106 41/107/107
f 41/107/107 38/106/106 37/108/108
f 20/109/109 19/110/110 44/111/111
f 44/111/111 19/110/110 43/112/112
f 19/113/113 18/114/114 43/115/115
f 43/115/115 18/114/114 45/116/116
f 18/117/117 17/118/118 45/119/119
f 45/119/119 17/118/118 46/120/120
f 17/121/121 20/122/122 46/123/123
f 46/123/123 20/122/122 44/124/124
f 39/125/125 47/126/126 40/127/127
f 40/127/127 47/126/126 48/128/128
f 47/129/129 42/130/130 48/131/131
f 48/131/131 42/130/130 41/132/132
f 41/133/133 37/134/134 48/135/135
f 48/135/135 37/134/134 40/136/136
f 44/137/137 38/138/138 46/139/139
f 46/139/139 38/138/138 42/140/140
f 46/139/139 42/140/140 45/141/141
f 45/141/141 42/140/140 47/142/142
f 45/141/141 47/142/142 43/143/143
f 43/143/143 47/142/142 44/137/137
f 44/137/137 47/142/142 39/144/144
f 44/137/137 39/144/144 38/138/138
# 48 vertices
# 144 texture params
# 144 normals
# 92 facets

# 1 groups
